<svg xmlns="http://www.w3.org/2000/svg" width="256" height="256" viewBox="0 0 256 256" version="1.1">
	<path d="M 113.609 1.062 C 99.003 2.757, 82.407 7.686, 69.899 14.043 C 55.489 21.367, 37.103 36.551, 27.399 49.141 C -0.049 84.751, -7.149 131.592, 8.540 173.556 C 21.405 207.967, 51.875 237.334, 86.777 248.962 C 101.995 254.032, 110.975 255.444, 128 255.444 C 145.021 255.444, 154.005 254.032, 169.211 248.966 C 213.736 234.133, 247.893 193.515, 254.118 148 C 254.683 143.875, 255.562 138.873, 256.072 136.884 C 257.256 132.270, 257.275 120.506, 256.103 118.236 C 255.609 117.281, 254.735 112.900, 254.160 108.500 C 249.211 70.612, 223.323 34.087, 188 15.155 C 165.629 3.166, 138.985 -1.882, 113.609 1.062 M 121.684 40.859 C 102.958 54.890, 79.901 63.545, 55.750 65.613 L 48 66.276 48 85.032 C 48 121.751, 52.419 148.022, 61.703 166.500 C 72.406 187.799, 91.283 205.197, 116.702 217.187 L 127.266 222.170 131.883 220.437 C 146.656 214.893, 163.022 204.802, 173.749 194.625 C 198.800 170.858, 207.996 142.080, 207.999 87.436 L 208 66.371 197.250 65.237 C 174.190 62.803, 151.467 53.151, 135.109 38.841 C 132.694 36.729, 130.444 35.001, 130.109 35.002 C 129.774 35.003, 125.983 37.639, 121.684 40.859 M 106.757 92.304 L 84.015 102.500 84.007 130.628 C 84.002 151.955, 84.302 158.989, 85.250 159.721 C 87.949 161.807, 127.817 179, 129.955 179 C 132.144 179, 172.183 161.787, 174.765 159.735 C 175.744 158.958, 175.970 152.266, 175.765 130.196 L 175.500 101.662 153.500 91.856 C 141.400 86.463, 131.050 82.064, 130.500 82.080 C 129.950 82.095, 119.266 86.696, 106.757 92.304 M 114.222 97.698 C 105.819 101.353, 99.294 104.664, 99.722 105.056 C 100.150 105.447, 107.162 108.767, 115.304 112.434 C 125.659 117.098, 130.745 118.898, 132.228 118.428 C 133.395 118.057, 140.674 114.905, 148.404 111.422 L 162.458 105.089 158.979 103.631 C 157.065 102.829, 149.675 99.659, 142.556 96.587 C 135.437 93.514, 129.587 91.012, 129.556 91.026 C 129.525 91.041, 122.625 94.043, 114.222 97.698 M 162 113.915 C 158.975 115.465, 151.438 118.861, 145.250 121.460 L 134 126.188 134 147.094 C 134 158.592, 134.338 168.004, 134.750 168.008 C 135.162 168.013, 142.812 164.751, 151.750 160.758 L 167.999 153.500 168 132.250 C 168 120.563, 167.887 111.022, 167.750 111.048 C 167.613 111.075, 165.025 112.365, 162 113.915 M 92.230 133.112 L 92.500 154.224 108.912 161.612 C 117.938 165.675, 125.484 169, 125.681 169 C 125.879 169, 125.918 159.454, 125.770 147.786 L 125.500 126.572 109.062 119.286 C 100.020 115.279, 92.474 112, 92.292 112 C 92.109 112, 92.082 121.500, 92.230 133.112 M 0.349 128 C 0.349 132.675, 0.522 134.588, 0.732 132.250 C 0.943 129.912, 0.943 126.087, 0.732 123.750 C 0.522 121.412, 0.349 123.325, 0.349 128" stroke="none" fill="black" fill-rule="evenodd"/>
</svg>